<svg width="31" height="30" viewBox="0 0 31 30" fill="none" xmlns="http://www.w3.org/2000/svg">
<g filter="url(#filter0_d)">
<rect x="3.81641" y="2" width="24" height="24" rx="4" fill="#C99D45"/>
<path d="M11.959 20V7.20312H16.4414C17.9941 7.20312 19.1719 7.50195 19.9746 8.09961C20.7773 8.69141 21.1787 9.56152 21.1787 10.71C21.1787 11.3369 21.0176 11.8906 20.6953 12.3711C20.373 12.8457 19.9248 13.1943 19.3506 13.417C20.0068 13.5811 20.5225 13.9121 20.8975 14.4102C21.2783 14.9082 21.4688 15.5176 21.4688 16.2383C21.4688 17.4688 21.0762 18.4004 20.291 19.0332C19.5059 19.666 18.3867 19.9883 16.9336 20H11.959ZM14.5957 14.4277V17.8818H16.8545C17.4756 17.8818 17.959 17.7354 18.3047 17.4424C18.6562 17.1436 18.832 16.7334 18.832 16.2119C18.832 15.04 18.2256 14.4453 17.0127 14.4277H14.5957ZM14.5957 12.5645H16.5469C17.877 12.541 18.542 12.0107 18.542 10.9736C18.542 10.3936 18.3721 9.97754 18.0322 9.72559C17.6982 9.46777 17.168 9.33887 16.4414 9.33887H14.5957V12.5645Z" fill="white"/>
</g>
<defs>
<filter id="filter0_d" x="0.816406" y="0" width="30" height="30" filterUnits="userSpaceOnUse" color-interpolation-filters="sRGB">
<feFlood flood-opacity="0" result="BackgroundImageFix"/>
<feColorMatrix in="SourceAlpha" type="matrix" values="0 0 0 0 0 0 0 0 0 0 0 0 0 0 0 0 0 0 127 0"/>
<feOffset dy="1"/>
<feGaussianBlur stdDeviation="1.5"/>
<feColorMatrix type="matrix" values="0 0 0 0 0 0 0 0 0 0 0 0 0 0 0 0 0 0 0.25 0"/>
<feBlend mode="normal" in2="BackgroundImageFix" result="effect1_dropShadow"/>
<feBlend mode="normal" in="SourceGraphic" in2="effect1_dropShadow" result="shape"/>
</filter>
</defs>
</svg>
