<svg width="31" height="30" viewBox="0 0 31 30" fill="none" xmlns="http://www.w3.org/2000/svg">
<path d="M19.1097 7.89989C20.3582 8.68263 21.2336 10.0072 21.3929 11.5447C21.9021 11.7826 22.4671 11.9194 23.0662 11.9194C25.2534 11.9194 27.0261 10.1467 27.0261 7.95987C27.0261 5.77271 25.2534 4 23.0662 4C20.9 4.00067 19.1428 5.74171 19.1097 7.89989ZM16.5155 16.0076C18.7027 16.0076 20.4754 14.2346 20.4754 12.0478C20.4754 9.86095 18.7024 8.08824 16.5155 8.08824C14.3287 8.08824 12.555 9.86129 12.555 12.0481C12.555 14.2349 14.3287 16.0076 16.5155 16.0076ZM18.1953 16.2775H14.8352C12.0395 16.2775 9.76504 18.5523 9.76504 21.348V25.4571L9.77549 25.5215L10.0585 25.6101C12.7265 26.4437 15.0444 26.7217 16.9522 26.7217C20.6786 26.7217 22.8385 25.6593 22.9716 25.5916L23.2361 25.4578H23.2644V21.348C23.2654 18.5523 20.9909 16.2775 18.1953 16.2775ZM24.7466 12.1896H21.4125C21.3764 13.5236 20.807 14.7249 19.9063 15.5888C22.3913 16.3277 24.2095 18.6322 24.2095 21.3541V22.6203C27.5015 22.4997 29.3986 21.5667 29.5236 21.504L29.7881 21.3699H29.8164V17.2594C29.8164 14.4641 27.542 12.1896 24.7466 12.1896ZM9.56725 11.9201C10.3419 11.9201 11.0626 11.694 11.6732 11.3088C11.8673 10.0429 12.5459 8.93669 13.5153 8.18326C13.5194 8.10914 13.5264 8.03568 13.5264 7.96088C13.5264 5.77372 11.7534 4.00101 9.56725 4.00101C7.37975 4.00101 5.60738 5.77372 5.60738 7.96088C5.60738 10.147 7.37975 11.9201 9.56725 11.9201ZM13.1234 15.5888C12.2272 14.7292 11.6597 13.5344 11.6183 12.2085C11.4946 12.1994 11.3723 12.1896 11.2463 12.1896H7.88653C5.09084 12.1896 2.81641 14.4641 2.81641 17.2594V21.3692L2.82685 21.4326L3.10989 21.5219C5.25021 22.19 7.1604 22.498 8.81955 22.5951V21.3541C8.82023 18.6322 10.6377 16.3284 13.1234 15.5888Z" fill="#9C9C9C"/>
</svg>
