<svg width="34" height="30" viewBox="0 0 34 30" fill="none" xmlns="http://www.w3.org/2000/svg">
<path d="M23.252 0C23.7445 0 24.2321 0.0969967 24.6871 0.285452C25.1421 0.473907 25.5555 0.75013 25.9037 1.09835C26.2519 1.44657 26.5281 1.85997 26.7166 2.31494C26.905 2.76991 27.002 3.25754 27.002 3.75V5.005H28.252C29.6887 5.00588 31.0662 5.57674 32.0824 6.59228C33.0986 7.60781 33.6703 8.98504 33.672 10.4217L33.677 20.4167C33.6772 20.9089 33.5805 21.3964 33.3923 21.8512C33.2042 22.3061 32.9283 22.7194 32.5803 23.0676C32.2324 23.4158 31.8193 23.6921 31.3647 23.8807C30.91 24.0693 30.4226 24.1664 29.9304 24.1667H26.9987V26.25C26.9987 27.2446 26.6036 28.1984 25.9003 28.9016C25.1971 29.6049 24.2433 30 23.2487 30H10.7487C9.75414 30 8.80031 29.6049 8.09705 28.9016C7.39379 28.1984 6.9987 27.2446 6.9987 26.25V24.1667H4.08203C3.08747 24.1667 2.13364 23.7716 1.43038 23.0683C0.727119 22.3651 0.332031 21.4112 0.332031 20.4167V10.4233C0.332031 8.98674 0.902714 7.60899 1.91854 6.59317C2.93436 5.57735 4.31211 5.00667 5.7487 5.00667L6.99703 5.005L6.9987 3.75C6.9987 2.75544 7.39379 1.80161 8.09705 1.09835C8.80031 0.395088 9.75414 0 10.7487 0H23.252ZM23.2487 17.5H10.7487C10.4172 17.5 10.0992 17.6317 9.86481 17.8661C9.63039 18.1005 9.4987 18.4185 9.4987 18.75V26.25C9.4987 26.94 10.0587 27.5 10.7487 27.5H23.2487C23.5802 27.5 23.8982 27.3683 24.1326 27.1339C24.367 26.8995 24.4987 26.5815 24.4987 26.25V18.75C24.4987 18.4185 24.367 18.1005 24.1326 17.8661C23.8982 17.6317 23.5802 17.5 23.2487 17.5ZM28.252 7.50667H5.7487C4.97515 7.50667 4.23328 7.81396 3.6863 8.36094C3.13932 8.90792 2.83203 9.64978 2.83203 10.4233V20.4167C2.83203 21.1067 3.39203 21.6667 4.08203 21.6667H6.9987V18.75C6.9987 17.7554 7.39379 16.8016 8.09705 16.0983C8.80031 15.3951 9.75414 15 10.7487 15H23.2487C24.2433 15 25.1971 15.3951 25.9003 16.0983C26.6036 16.8016 26.9987 17.7554 26.9987 18.75V21.6667H29.9704C30.2942 21.6559 30.6011 21.5196 30.8263 21.2866C31.0514 21.0537 31.1772 20.7423 31.177 20.4183L31.172 10.4233C31.1703 9.64975 30.862 8.9084 30.3146 8.36171C29.7673 7.81501 29.0256 7.50755 28.252 7.50667ZM23.252 2.5H10.7487C10.4172 2.5 10.0992 2.6317 9.86481 2.86612C9.63039 3.10054 9.4987 3.41848 9.4987 3.75L9.49703 5.005H24.502V3.75C24.502 3.41848 24.3703 3.10054 24.1359 2.86612C23.9015 2.6317 23.5836 2.5 23.252 2.5Z" fill="#38808C"/>
</svg>
