<svg width="31" height="30" viewBox="0 0 31 30" fill="none" xmlns="http://www.w3.org/2000/svg">
<path d="M7.38133 12.4059C7.38133 9.9025 9.41059 7.87325 11.914 7.87325C14.4174 7.87325 16.4467 9.9025 16.4467 12.4059C16.4467 14.9093 14.4174 16.9386 11.914 16.9386C9.41059 16.9386 7.38133 14.9093 7.38133 12.4059ZM13.8373 17.2477H9.99096C6.791 17.2477 4.1875 19.8511 4.1875 23.0506V27.7557L4.19955 27.829L4.52431 27.9304C7.57761 28.8842 10.2312 29.2025 12.415 29.2025C16.6802 29.2025 19.1521 27.9862 19.3052 27.909L19.6085 27.755L19.6405 27.7553V23.0506C19.6405 19.8511 17.037 17.2477 13.8373 17.2477ZM19.6405 10.1883C22.1437 10.1883 24.1731 8.1591 24.1731 5.65568C24.1731 3.15242 22.1438 1.12317 19.6405 1.12317C17.1372 1.12317 15.1078 3.15242 15.1078 5.65568C15.1078 8.1591 17.1372 10.1883 19.6405 10.1883ZM21.5636 10.4974H17.7173C17.6256 10.4974 17.5362 10.507 17.4457 10.5114C17.7934 11.2413 17.9941 12.0548 17.9941 12.9161C17.9941 14.5056 17.3273 15.9393 16.2619 16.9618C18.7549 17.7033 20.6606 19.8205 21.0943 22.4295C24.7708 22.2689 26.8901 21.23 27.0311 21.1588L27.3344 21.0049L27.3664 21.0055V16.3008C27.367 13.101 24.7635 10.4974 21.5636 10.4974Z" fill="#9C9C9C"/>
</svg>
